<?xml version="1.0"?>
<svg xmlns="http://www.w3.org/2000/svg" viewBox="0 0 64 64" width="512" height="512"><g id="outline"><path d="M20,37a5.006,5.006,0,0,0-5-5H13a5.006,5.006,0,0,0-5,5v8H6v2H22V45H20Zm-2,0v1H15V34A3,3,0,0,1,18,37Zm-5-3v4H10V37A3,3,0,0,1,13,34Zm-3,6h3v5H10Zm5,5V40h3v5Z"/><path d="M61.97,28.758l-4-16A1,1,0,0,0,57,12H42V9a1,1,0,0,0-1-1H29a1,1,0,0,0-1,1v3H7a1,1,0,0,0-.97.758l-4,16A1.838,1.838,0,0,0,2,29V55a1,1,0,0,0,1,1H61a1,1,0,0,0,1-1V29A1.838,1.838,0,0,0,61.97,28.758ZM59.719,28H40V14H56.219ZM30,10H40v2H30ZM24.168,37.445A1.006,1.006,0,0,0,24,38V49H4V30H29.132ZM18,51v3H10V51Zm2,0h4v3H20ZM7.781,14H30V28H4.281ZM4,51H8v3H4Zm22,3V46h4V44H26V42h6V40H26V38.3L28.868,34H34V32H30.2l1.63-2.445A1.006,1.006,0,0,0,32,29V26h4V24H32V18h4V16H32V14h6v6H36v2h2V36H31v2h7v2H34v2h4v8H29v2h9v2Zm30-4H45.414L56,39.414Zm0-14H44V34H56ZM44,44h2V42H44V38H54.586L44,48.586Zm0,10V52H56v2Zm16,0H58V33a1,1,0,0,0-1-1H43a1,1,0,0,0-1,1V54H40V30H60Z"/><rect x="32" y="46" width="4" height="2"/><path d="M9.02,16.8l-1,5,1.96.392.84-4.2H15V16H10A1,1,0,0,0,9.02,16.8Z"/><rect x="7" y="24" width="2" height="2"/><path d="M55.03,25.242l1.94-.484-2-8A1,1,0,0,0,54,16H49v2h4.219Z"/></g></svg>
