<?xml version="1.0" encoding="iso-8859-1"?>
<!-- Generator: Adobe Illustrator 19.0.0, SVG Export Plug-In . SVG Version: 6.00 Build 0)  -->
<svg version="1.1" id="Capa_1" xmlns="http://www.w3.org/2000/svg" xmlns:xlink="http://www.w3.org/1999/xlink" x="0px" y="0px"
	 viewBox="0 0 512 512" style="enable-background:new 0 0 512 512;" xml:space="preserve">
<g>
	<g>
		<path d="M481.72,41.29H30.28C13.582,41.29,0,54.872,0,71.57v368.86c0,16.692,13.582,30.28,30.28,30.28H481.72
			c16.692,0,30.28-13.587,30.28-30.28V71.57C512,54.872,498.413,41.29,481.72,41.29z M495.484,440.43
			c0,7.592-6.172,13.763-13.763,13.763H30.28c-7.586,0-13.763-6.172-13.763-13.763V71.57c0-7.586,6.177-13.763,13.763-13.763H481.72
			c7.592,0,13.763,6.177,13.763,13.763V440.43z"/>
	</g>
</g>
<g>
	<g>
		<path d="M503.742,123.871H8.258c-4.564,0-8.258,3.694-8.258,8.258s3.694,8.258,8.258,8.258h495.484
			c4.558,0,8.258-3.694,8.258-8.258S508.3,123.871,503.742,123.871z"/>
	</g>
</g>
<g>
	<g>
		<path d="M448.688,151.398H63.312c-4.564,0-8.258,3.694-8.258,8.258c0,4.564,3.694,8.258,8.258,8.258h385.376
			c4.558,0,8.258-3.694,8.258-8.258C456.946,155.092,453.247,151.398,448.688,151.398z"/>
	</g>
</g>
<g>
	<g>
		<path d="M118.366,151.398c-4.564,0-8.258,3.694-8.258,8.258v27.527c0,4.564,3.694,8.258,8.258,8.258s8.258-3.694,8.258-8.258
			v-27.527C126.624,155.092,122.93,151.398,118.366,151.398z"/>
	</g>
</g>
<g>
	<g>
		<path d="M393.634,151.398c-4.558,0-8.258,3.694-8.258,8.258v27.527c0,4.564,3.7,8.258,8.258,8.258s8.258-3.694,8.258-8.258
			v-27.527C401.892,155.092,398.193,151.398,393.634,151.398z"/>
	</g>
</g>
<g>
	<g>
		<path d="M426.667,178.925H85.333c-16.698,0-30.28,13.582-30.28,30.28v176.172c0,16.692,13.582,30.28,30.28,30.28h341.333
			c16.692,0,30.28-13.587,30.28-30.28V209.204C456.946,192.506,443.359,178.925,426.667,178.925z M440.43,385.376
			c0,7.592-6.172,13.763-13.763,13.763H85.333c-7.586,0-13.763-6.172-13.763-13.763V209.204c0-7.586,6.177-13.763,13.763-13.763
			h341.333c7.592,0,13.763,6.177,13.763,13.763V385.376z"/>
	</g>
</g>
<g>
	<g>
		<path d="M124.201,208.874c-3.226-3.226-8.451-3.226-11.677,0l-27.527,27.527c-3.226,3.221-3.226,8.456,0,11.677
			c1.613,1.613,3.727,2.417,5.841,2.417c2.114,0,4.228-0.804,5.836-2.417l27.527-27.527
			C127.427,217.33,127.427,212.095,124.201,208.874z"/>
	</g>
</g>
<g>
	<g>
		<path d="M179.255,208.874c-3.226-3.226-8.451-3.226-11.677,0l-82.581,82.581c-3.226,3.226-3.226,8.451,0,11.677
			c1.613,1.613,3.727,2.417,5.841,2.417c2.114,0,4.228-0.804,5.836-2.417l82.581-82.581
			C182.481,217.33,182.481,212.095,179.255,208.874z"/>
	</g>
</g>
<g>
	<g>
		<path d="M228.473,13.763H63.312c-4.564,0-8.258,3.694-8.258,8.258v27.527c0,4.564,3.694,8.258,8.258,8.258
			s8.258-3.694,8.258-8.258V30.28h148.645v19.269c0,4.564,3.694,8.258,8.258,8.258c4.564,0,8.258-3.694,8.258-8.258V22.021
			C236.731,17.458,233.037,13.763,228.473,13.763z"/>
	</g>
</g>
<g>
	<g>
		<path d="M448.688,13.763H283.527c-4.558,0-8.258,3.694-8.258,8.258v27.527c0,4.564,3.7,8.258,8.258,8.258
			c4.558,0,8.258-3.694,8.258-8.258V30.28H440.43v19.269c0,4.564,3.7,8.258,8.258,8.258s8.258-3.694,8.258-8.258V22.021
			C456.946,17.458,453.247,13.763,448.688,13.763z"/>
	</g>
</g>
<g>
	<g>
		<path d="M63.862,79.828h-0.551c-4.564,0-8.258,3.694-8.258,8.258s3.694,8.258,8.258,8.258h0.551c4.564,0,8.258-3.694,8.258-8.258
			S68.426,79.828,63.862,79.828z"/>
	</g>
</g>
<g>
	<g>
		<path d="M449.239,79.828h-0.551c-4.558,0-7.983,3.694-7.983,8.258s3.975,8.258,8.533,8.258s8.258-3.694,8.258-8.258
			S453.797,79.828,449.239,79.828z"/>
	</g>
</g>
<g>
	<g>
		<path d="M394.185,79.828h-0.551c-4.558,0-7.983,3.694-7.983,8.258s3.975,8.258,8.533,8.258s8.258-3.694,8.258-8.258
			S398.743,79.828,394.185,79.828z"/>
	</g>
</g>
<g>
	<g>
		<path d="M339.131,79.828h-0.551c-4.558,0-7.983,3.694-7.983,8.258s3.975,8.258,8.533,8.258c4.558,0,8.258-3.694,8.258-8.258
			S343.69,79.828,339.131,79.828z"/>
	</g>
</g>
<g>
	<g>
		<path d="M284.077,79.828h-0.551c-4.558,0-7.983,3.694-7.983,8.258s3.975,8.258,8.533,8.258c4.558,0,8.258-3.694,8.258-8.258
			S288.636,79.828,284.077,79.828z"/>
	</g>
</g>
<g>
	<g>
		<path d="M118.366,454.194c-4.564,0-8.258,3.7-8.258,8.258v16.516c0,1.492-1.261,2.753-2.753,2.753H46.796
			c-1.492,0-2.753-1.261-2.753-2.753v-16.516c0-4.558-3.694-8.258-8.258-8.258c-4.564,0-8.258,3.7-8.258,8.258v16.516
			c0,10.625,8.643,19.269,19.269,19.269h60.559c10.625,0,19.269-8.643,19.269-19.269v-16.516
			C126.624,457.893,122.93,454.194,118.366,454.194z"/>
	</g>
</g>
<g>
	<g>
		<path d="M476.215,454.194c-4.558,0-8.258,3.7-8.258,8.258v16.516c0,1.492-1.261,2.753-2.753,2.753h-60.559
			c-1.492,0-2.753-1.261-2.753-2.753v-16.516c0-4.558-3.7-8.258-8.258-8.258s-8.258,3.7-8.258,8.258v16.516
			c0,10.625,8.643,19.269,19.269,19.269h60.559c10.625,0,19.269-8.643,19.269-19.269v-16.516
			C484.473,457.893,480.773,454.194,476.215,454.194z"/>
	</g>
</g>
<g>
</g>
<g>
</g>
<g>
</g>
<g>
</g>
<g>
</g>
<g>
</g>
<g>
</g>
<g>
</g>
<g>
</g>
<g>
</g>
<g>
</g>
<g>
</g>
<g>
</g>
<g>
</g>
<g>
</g>
</svg>
