<?xml version="1.0" encoding="iso-8859-1"?>
<!-- Generator: Adobe Illustrator 19.0.0, SVG Export Plug-In . SVG Version: 6.00 Build 0)  -->
<svg version="1.1" id="Capa_1" xmlns="http://www.w3.org/2000/svg" xmlns:xlink="http://www.w3.org/1999/xlink" x="0px" y="0px"
	 viewBox="0 0 512 512" style="enable-background:new 0 0 512 512;" xml:space="preserve">
<g>
	<g>
		<g>
			<path d="M378.048,283.459h-76.651c-10.182,0-18.466,8.283-18.466,18.465v77.228h-1.896c-8.514,0-15.44,6.926-15.44,15.439v19.318
				c0,8.514,6.926,15.439,15.44,15.439H398.41c8.514,0,15.439-6.926,15.439-15.439v-19.318c0-8.514-6.926-15.439-15.439-15.439
				h-1.896v-77.228C396.514,291.742,388.229,283.459,378.048,283.459z M347.222,298.459h30.826c1.911,0,3.466,1.555,3.466,3.465
				v29.381h-34.292V298.459z M347.222,346.305h34.292v32.847h-34.292V346.305z M297.931,301.924c0-1.91,1.555-3.465,3.466-3.465
				h30.825v32.846h-34.291V301.924z M297.931,346.305L297.931,346.305h34.291v32.847h-34.291V346.305z M398.41,394.151
				c0.242,0,0.439,0.197,0.439,0.439v19.318c0,0.242-0.197,0.439-0.439,0.439H281.034c-0.242,0-0.44-0.197-0.44-0.439V394.59
				c0-0.242,0.197-0.439,0.44-0.439H398.41z"/>
			<path d="M493.318,174.763l-55.142-21.42V80.754c8.219-1.147,14.571-8.203,14.571-16.732V40.303
				c0-9.326-7.588-16.914-16.914-16.914h-108.37c-9.326,0-16.914,7.588-16.914,16.914v23.719c0,8.529,6.353,15.585,14.571,16.732
				v28.673L274.775,89.87c-12.107-4.703-25.442-4.703-37.552,0L86.206,148.532c-3.861,1.5-5.775,5.846-4.275,9.707
				c1.499,3.86,5.843,5.776,9.707,4.275l151.017-58.662c8.606-3.342,18.086-3.342,26.69,0l218.543,84.893
				c5.535,2.15,9.112,7.377,9.112,13.316v28.452c0,4.788-2.267,9.085-6.218,11.789c-3.952,2.704-8.779,3.261-13.241,1.527
				l-210.938-81.938c-6.838-2.656-14.37-2.656-21.208,0L34.459,243.83c-4.465,1.733-9.289,1.177-13.241-1.527
				C17.267,239.599,15,235.302,15,230.514v-28.452c0-5.939,3.577-11.166,9.113-13.316l34.006-13.21
				c3.861-1.5,5.775-5.846,4.275-9.707c-1.5-3.861-5.846-5.774-9.707-4.275l-34.005,13.21C7.333,179.171,0,189.886,0,202.061v28.452
				c0,9.671,4.765,18.706,12.746,24.168c7.983,5.462,18.129,6.632,27.144,3.131l8.802-3.419v204.142
				c0,16.584,13.492,30.076,30.076,30.076h354.463c16.584,0,30.076-13.492,30.076-30.076v-20.741c0-4.143-3.357-7.5-7.5-7.5
				s-7.5,3.357-7.5,7.5v20.741c0,8.313-6.763,15.076-15.076,15.076H240.348V311.918c0-15.692-12.767-28.459-28.459-28.459H126.61
				c-15.692,0-28.459,12.767-28.459,28.459v161.693H78.769c-8.313,0-15.076-6.763-15.076-15.076V248.567l187.134-72.693
				c3.338-1.295,7.011-1.295,10.347,0l187.135,72.693v153.678c0,4.143,3.357,7.5,7.5,7.5s7.5-3.357,7.5-7.5V254.393l8.802,3.419
				c3.433,1.333,7.027,1.989,10.605,1.989c5.821-0.001,11.596-1.737,16.539-5.12c7.98-5.461,12.745-14.496,12.745-24.167v-28.452
				C512,189.886,504.667,179.171,493.318,174.763z M423.177,147.516l-83.056-32.263V80.936h83.056V147.516z M437.748,64.021
				c0,1.056-0.858,1.914-1.914,1.914h-108.37c-1.056,0-1.914-0.858-1.914-1.914V40.303c0-1.056,0.858-1.914,1.914-1.914h108.37
				c1.056,0,1.914,0.858,1.914,1.914V64.021z M113.15,311.918c0-7.421,6.038-13.459,13.459-13.459h85.279
				c7.421,0,13.459,6.038,13.459,13.459v161.693H113.15V311.918z"/>
			<circle cx="133.844" cy="386.034" r="7.157"/>
		</g>
	</g>
</g>
<g>
</g>
<g>
</g>
<g>
</g>
<g>
</g>
<g>
</g>
<g>
</g>
<g>
</g>
<g>
</g>
<g>
</g>
<g>
</g>
<g>
</g>
<g>
</g>
<g>
</g>
<g>
</g>
<g>
</g>
</svg>
