<?xml version="1.0"?>
<svg xmlns="http://www.w3.org/2000/svg" id="Capa_1" enable-background="new 0 0 512 512" height="512px" viewBox="0 0 512 512" width="512px" class=""><g><g><path d="m63.043 259.204c0 5.523 4.477 10 10 10h184.127c5.522 0 10-4.477 10-10s-4.478-10-10-10h-184.127c-5.522 0-10 4.477-10 10z" data-original="#000000" class="active-path" data-old_color="#000000" fill="#FFFFFF"/><path d="m73.043 318.586h184.127c5.522 0 10-4.477 10-10s-4.478-10-10-10h-184.127c-5.523 0-10 4.477-10 10s4.478 10 10 10z" data-original="#000000" class="active-path" data-old_color="#000000" fill="#FFFFFF"/><path d="m502 44.893h-492c-5.523 0-10 4.477-10 10v313.937 50.665c0 5.523 4.477 10 10 10h127.811c5.523 0 10-4.477 10-10s-4.477-10-10-10h-67.985c-4.241-25.452-24.374-45.585-49.826-49.826v-244.95c25.452-4.241 45.585-24.374 49.826-49.826h372.693c4.233 25.29 24.219 45.392 49.481 49.76v245.083c-25.261 4.367-45.247 24.469-49.481 49.76h-18.99v-57.236c0-.016-.002-.031-.002-.046.018-1.356-.053-2.724-.238-4.096-.352-2.601.728-5.205 2.814-6.795 14.129-10.768 14.133-32.676 0-43.447-2.087-1.59-3.166-4.194-2.814-6.795 2.378-17.609-13.112-33.094-30.722-30.722-2.603.353-5.205-.728-6.795-2.815-10.77-14.13-32.676-14.133-43.448 0-1.591 2.087-4.195 3.165-6.794 2.814-17.605-2.38-33.1 13.113-30.722 30.722.352 2.601-.728 5.205-2.813 6.794-14.131 10.767-14.136 32.677-.001 43.447 2.087 1.59 3.166 4.194 2.814 6.795-.272 2.01-.31 4.015-.138 5.986v55.394h-78.809c-5.523 0-10 4.477-10 10s4.477 10 10 10h78.809v27.656c0 7.887 9.141 12.714 15.655 8.247l43.77-30.016 43.779 30.016c6.505 4.461 15.654-.345 15.654-8.248v-27.656h78.472c5.522 0 10-4.477 10-10v-50.655-313.947c0-5.523-4.478-10-10-10zm-187.883 268.887c7.795-5.94 11.823-15.665 10.512-25.379-.638-4.714 3.513-8.862 8.226-8.225 9.71 1.313 19.438-2.717 25.379-10.513 1.646-2.159 4.388-3.103 7.023-2.711 1.193.177 4.609 1.117 4.609 2.712 5.94 7.794 15.666 11.825 25.378 10.512 4.714-.637 8.861 3.511 8.226 8.226-1.312 9.713 2.717 19.438 10.512 25.378 3.783 2.882 3.783 8.75 0 11.632-7.795 5.94-11.823 15.665-10.512 25.378.683 5.062-3.671 8.659-8.467 8.199-9.381-1.109-18.858 2.668-24.771 10.09-2.866 4.455-8.786 4.664-12 .449-5.863-7.694-15.075-11.345-24.583-10.63-4.757.348-9.766-2.577-9.019-8.107 1.312-9.713-2.717-19.438-10.513-25.379-3.784-2.883-3.783-8.749 0-11.632zm89.412 124.39-33.78-23.16c-3.371-2.313-7.939-2.312-11.31 0l-33.769 23.157v-60.066c3.518 1.003 7.24 1.223 10.86.736 2.888-.394 5.192 1.041 7.014 3.108 10.766 13.756 32.438 13.579 43.056-.072 2.097-2.452 4.497-3.266 7.556-2.974 3.542.402 7.052.127 10.373-.791zm-354.108-28.676h-29.421v-29.421c14.404 3.656 25.766 15.017 29.421 29.421zm-29.421-315.18v-29.421h29.421c-3.655 14.404-15.017 25.765-29.421 29.421zm442.925-29.421h29.075v29.324c-14.224-3.75-25.44-15.06-29.075-29.324zm29.075 344.601h-29.075c3.635-14.264 14.851-25.574 29.075-29.324z" data-original="#000000" class="active-path" data-old_color="#000000" fill="#FFFFFF"/><path d="m160.968 369.994h95.032c5.522 0 10-4.477 10-10s-4.478-10-10-10h-95.032c-5.523 0-10 4.477-10 10s4.477 10 10 10z" data-original="#000000" class="active-path" data-old_color="#000000" fill="#FFFFFF"/><path d="m185.475 81.064c-5.182-1.909-10.931.744-12.841 5.926-5.833 15.83-9.374 32.57-9.58 49.472l-5.959-5.169c-4.171-3.619-10.488-3.171-14.106 1.001-3.619 4.171-3.171 10.487 1.001 14.106l22.124 19.192c4.551 19.875 14.597 41.168 30.11 54.92 4.047 3.589 10.473 3.191 14.07-.829 3.671-4.103 3.319-10.416-.768-14.105-.066-.06-3.966-3.632-8.744-10.38l13.47-23.976c2.705-4.815.995-10.911-3.82-13.616-4.815-2.704-10.911-.995-13.616 3.82l-7.217 12.847c-4.842-12.55-7.015-26.012-6.6-39.447l22.743-12.991c4.796-2.739 6.462-8.848 3.723-13.643-2.739-4.796-8.847-6.462-13.643-3.723l-9.3 5.312c1.283-5.225 2.906-10.518 4.88-15.875 1.909-5.184-.745-10.933-5.927-12.842z" data-original="#000000" class="active-path" data-old_color="#000000" fill="#FFFFFF"/><path d="m333.427 157.503c-1.57 5.645-2.699 11.27-4.82 16.769l-7.217-12.846c-2.705-4.815-8.804-6.523-13.617-3.82-4.814 2.705-6.525 8.801-3.82 13.616l13.47 23.976c-4.738 6.692-8.614 10.261-8.741 10.377-4.104 3.668-4.472 9.968-.817 14.09 3.597 4.055 10.06 4.444 14.117.848 15.512-13.752 25.559-35.045 30.11-54.92l22.123-19.193c4.172-3.619 4.62-9.935 1.001-14.107s-9.937-4.619-14.106-1l-5.958 5.169c-.206-16.901-3.748-33.642-9.581-49.471-1.909-5.182-7.661-7.834-12.84-5.926-5.183 1.91-7.836 7.659-5.926 12.841 1.974 5.357 3.597 10.65 4.88 15.875l-9.3-5.312c-4.792-2.739-10.903-1.074-13.644 3.723-2.739 4.795-1.072 10.904 3.724 13.643l22.743 12.992c.238 7.745-.354 15.311-1.781 22.676z" data-original="#000000" class="active-path" data-old_color="#000000" fill="#FFFFFF"/><path d="m260.195 201.153c5.522 0 10-4.477 10-10v-79.504c0-5.523-4.478-10-10-10h-21.226c-5.523 0-10 4.477-10 10s4.477 10 10 10h11.226v69.504c0 5.523 4.477 10 10 10z" data-original="#000000" class="active-path" data-old_color="#000000" fill="#FFFFFF"/><path d="m191.11 413.942c-2.984-4.564-9.357-5.749-13.86-2.76-4.534 3.01-5.795 9.337-2.77 13.86 3.026 4.526 9.337 5.799 13.87 2.77 4.53-3.028 5.779-9.34 2.76-13.87z" data-original="#000000" class="active-path" data-old_color="#000000" fill="#FFFFFF"/></g></g> </svg>
